<svg width="14" height="14" viewBox="0 0 14 14" fill="none" xmlns="http://www.w3.org/2000/svg">
<path d="M7.78553 0H0.55611C0.248979 0 0 0.248979 0 0.55611V7.78553C0 8.09266 0.248979 8.34164 0.55611 8.34164H7.78553C8.09266 8.34164 8.34164 8.09266 8.34164 7.78553V0.55611C8.34164 0.248979 8.09266 0 7.78553 0Z" fill="#2287FF"/>
<path d="M13.1732 7.94948H8.32324C8.11681 7.94948 7.94946 8.11682 7.94946 8.32326V13.1733C7.94946 13.3797 8.11681 13.547 8.32324 13.547H13.1732C13.3797 13.547 13.547 13.3797 13.547 13.1733V8.32326C13.547 8.11682 13.3797 7.94948 13.1732 7.94948Z" fill="#2287FF"/>
</svg>
